<svg width="35" height="34" viewBox="0 0 35 34" fill="none" xmlns="http://www.w3.org/2000/svg">
<path d="M2.69027 14.0092C2.95052 14.0092 3.20012 13.9058 3.38414 13.7217C3.56817 13.5377 3.67156 13.2881 3.67156 13.0279V5.89196C3.67234 5.18223 3.95462 4.50179 4.45648 3.99993C4.95833 3.49808 5.63877 3.21579 6.3485 3.21501H13.4844C13.7447 3.21501 13.9943 3.11163 14.1783 2.9276C14.3623 2.74357 14.4657 2.49398 14.4657 2.23373C14.4657 1.97347 14.3623 1.72388 14.1783 1.53985C13.9943 1.35583 13.7447 1.25244 13.4844 1.25244H6.3485C5.11843 1.25374 3.9391 1.74296 3.0693 2.61276C2.19951 3.48256 1.71028 4.66188 1.70898 5.89196V13.0279C1.70898 13.2881 1.81237 13.5377 1.9964 13.7217C2.18042 13.9058 2.43002 14.0092 2.69027 14.0092Z" fill="#fff"/>
<path d="M28.4707 1.25244H21.3348C21.0745 1.25244 20.825 1.35583 20.6409 1.53985C20.4569 1.72388 20.3535 1.97347 20.3535 2.23373C20.3535 2.49398 20.4569 2.74357 20.6409 2.9276C20.825 3.11163 21.0745 3.21501 21.3348 3.21501H28.4707C29.1804 3.21579 29.8609 3.49808 30.3627 3.99993C30.8646 4.50179 31.1469 5.18223 31.1477 5.89196V13.0279C31.1477 13.2881 31.251 13.5377 31.4351 13.7217C31.6191 13.9058 31.8687 14.0092 32.1289 14.0092C32.3892 14.0092 32.6388 13.9058 32.8228 13.7217C33.0068 13.5377 33.1102 13.2881 33.1102 13.0279V5.89196C33.1089 4.66188 32.6197 3.48256 31.7499 2.61276C30.8801 1.74296 29.7008 1.25374 28.4707 1.25244Z" fill="#fff"/>
<path d="M13.4844 30.6911H6.3485C5.63877 30.6903 4.95833 30.4081 4.45648 29.9062C3.95462 29.4043 3.67234 28.7239 3.67156 28.0142V20.8783C3.67156 20.618 3.56817 20.3684 3.38414 20.1844C3.20012 20.0004 2.95052 19.897 2.69027 19.897C2.43002 19.897 2.18042 20.0004 1.9964 20.1844C1.81237 20.3684 1.70898 20.618 1.70898 20.8783V28.0142C1.71028 29.2442 2.19951 30.4236 3.0693 31.2934C3.9391 32.1632 5.11843 32.6524 6.3485 32.6537H13.4844C13.7447 32.6537 13.9943 32.5503 14.1783 32.3663C14.3623 32.1822 14.4657 31.9327 14.4657 31.6724C14.4657 31.4121 14.3623 31.1626 14.1783 30.9785C13.9943 30.7945 13.7447 30.6911 13.4844 30.6911Z" fill="#fff"/>
<path d="M32.1289 19.897C31.8687 19.897 31.6191 20.0004 31.4351 20.1844C31.251 20.3684 31.1477 20.618 31.1477 20.8783V28.0142C31.1469 28.7239 30.8646 29.4043 30.3627 29.9062C29.8609 30.4081 29.1804 30.6903 28.4707 30.6911H21.3348C21.0745 30.6911 20.825 30.7945 20.6409 30.9785C20.4569 31.1626 20.3535 31.4121 20.3535 31.6724C20.3535 31.9327 20.4569 32.1822 20.6409 32.3663C20.825 32.5503 21.0745 32.6537 21.3348 32.6537H28.4707C29.7008 32.6524 30.8801 32.1632 31.7499 31.2934C32.6197 30.4236 33.1089 29.2442 33.1102 28.0142V20.8783C33.1102 20.618 33.0068 20.3684 32.8228 20.1844C32.6388 20.0004 32.3892 19.897 32.1289 19.897Z" fill="#fff"/>
<path d="M17.4089 24.8031C21.7445 24.8031 25.2592 21.2884 25.2592 16.9528C25.2592 12.6172 21.7445 9.10254 17.4089 9.10254C13.0733 9.10254 9.55859 12.6172 9.55859 16.9528C9.55859 21.2884 13.0733 24.8031 17.4089 24.8031Z" fill="#F44653"/>
</svg>
