<svg width="24" height="24" viewBox="0 0 24 24" fill="none" xmlns="http://www.w3.org/2000/svg">
<g clip-path="url(#clip0_4752_8195)">
<path d="M12 2C6.48615 2 2 6.48615 2 12C2 17.5139 6.48615 22 12 22C17.5139 22 22 17.5139 22 12C22 6.48615 17.5139 2 12 2ZM12 3.5C16.7031 3.5 20.5 7.29685 20.5 12C20.5 16.7031 16.7031 20.5 12 20.5C7.29685 20.5 3.5 16.7031 3.5 12C3.5 7.29685 7.29685 3.5 12 3.5Z" fill="#F44653"/>
<g filter="url(#filter0_d_4752_8195)">
<path d="M7.5 12C7.5 9.5236 9.5236 7.5 12 7.5C14.4764 7.5 16.5 9.5236 16.5 12C16.5 14.4764 14.4764 16.5 12 16.5C9.5236 16.5 7.5 14.4764 7.5 12Z" fill="#F44653"/>
</g>
</g>
<defs>
<filter id="filter0_d_4752_8195" x="-4.5" y="-4.5" width="33" height="33" filterUnits="userSpaceOnUse" color-interpolation-filters="sRGB">
<feFlood flood-opacity="0" result="BackgroundImageFix"/>
<feColorMatrix in="SourceAlpha" type="matrix" values="0 0 0 0 0 0 0 0 0 0 0 0 0 0 0 0 0 0 127 0" result="hardAlpha"/>
<feOffset/>
<feGaussianBlur stdDeviation="6"/>
<feComposite in2="hardAlpha" operator="out"/>
<feColorMatrix type="matrix" values="0 0 0 0 0.956863 0 0 0 0 0.27451 0 0 0 0 0.32549 0 0 0 0.2 0"/>
<feBlend mode="normal" in2="BackgroundImageFix" result="effect1_dropShadow_4752_8195"/>
<feBlend mode="normal" in="SourceGraphic" in2="effect1_dropShadow_4752_8195" result="shape"/>
</filter>
<clipPath id="clip0_4752_8195">
<rect width="24" height="24" fill="white"/>
</clipPath>
</defs>
</svg>
