<svg width="76" height="84" viewBox="0 0 76 84" fill="none" xmlns="http://www.w3.org/2000/svg">
<path d="M16.2516 34.567C15.4256 35.0092 14.8091 35.7613 14.5374 36.658C14.2658 37.5547 14.3614 38.5225 14.8032 39.3487C14.0048 37.8559 14.7512 35.8984 16.4719 34.9768C17.7096 34.3146 19.1081 34.3789 20.096 35.0193C20.1111 34.9912 20.1295 34.9652 20.1446 34.9378C19.6042 34.4997 18.9466 34.2308 18.2541 34.1649C17.5616 34.0989 16.865 34.2388 16.2516 34.567ZM8.96581 54.1742C9.89365 54.175 10.8167 54.3075 11.7073 54.5676C13.9548 55.2292 15.8411 56.655 17.0289 58.5078C17.1664 57.7805 17.284 57.0744 17.386 56.3868C16.2269 55.4295 14.8734 54.7357 13.4195 54.3536C11.9655 53.9716 10.4458 53.9103 8.96581 54.1742ZM14.548 42.4966C14.4574 42.5049 14.3674 42.5186 14.2785 42.5377C11.5376 43.122 7.91217 48.1124 5.10294 54.9966C5.65777 54.7462 6.23596 54.5511 6.82912 54.4144C9.18338 48.7842 12.035 44.4 14.548 42.4966ZM12.0501 59.6764C11.3981 59.2768 10.6571 59.0339 9.90176 58.9108C9.14119 58.8013 8.36741 58.8239 7.61456 58.9778C6.86451 59.1452 6.14889 59.4405 5.49908 59.8508C4.85868 60.2709 4.28192 60.7964 3.84952 61.4258C2.96009 62.6601 2.64126 64.313 3.13387 65.6937C2.99977 64.2426 3.49922 62.8592 4.37429 61.8267C5.25003 60.7909 6.47403 60.0841 7.79176 59.8091C9.10743 59.5252 10.5121 59.6709 11.7347 60.2579C12.9539 60.8443 13.9747 61.9027 14.4454 63.2813C14.3311 61.8199 13.3658 60.4392 12.0501 59.6764Z" fill="#101A64"/>
<path d="M48.9958 63.1625C48.8713 63.0086 48.7447 62.869 48.6188 62.7246C45.9492 68.4375 42.427 72.5371 37.8177 72.5371C33.1742 72.5371 29.6267 68.3787 26.9365 62.6001C26.812 62.741 26.6868 62.8779 26.5643 63.0284L26.2578 63.4047V65.2485C26.2578 78.1912 34.3332 79.5889 37.8054 79.5889C43.0489 79.5889 49.2968 77.1232 49.2968 65.3772V63.5367L48.9958 63.1625ZM27.6645 66.6942C28.413 67.91 29.1943 68.9677 30.0057 69.8743C30.3109 72.1211 30.6598 74.0868 31.069 75.7589C29.221 73.9903 27.8998 71.125 27.6645 66.6942ZM44.4556 75.9902C44.8832 74.2838 45.2465 72.2696 45.5592 69.9448C46.3692 69.0485 47.1478 68.0037 47.8943 66.7996C47.6664 71.4328 46.3302 74.2907 44.4556 75.9902Z" fill="#101A64"/>
<path d="M37.8158 73.8339C34.9593 73.8339 32.3533 72.5094 30.0059 69.8931C31.3626 79.8814 33.6464 84.0001 37.7945 84.0001C41.9386 84.0001 44.2128 79.9019 45.5552 69.9587C43.231 72.5306 40.6483 73.8339 37.8158 73.8339Z" fill="#101A64"/>
<path d="M37.8178 73.8339C35.5935 73.8339 33.5232 73.0163 31.6055 71.4263C32.9068 79.6528 34.8738 82.6413 37.7966 82.6413C40.7126 82.6413 42.6721 79.7076 43.9617 71.4789C42.0666 73.0348 40.0181 73.8339 37.8178 73.8339Z" fill="#101A64"/>
<path d="M22.5087 34.3217C21.6998 33.2153 20.5184 32.4385 19.1821 32.1344C17.8457 31.8302 16.4445 32.0193 15.2365 32.6667C14.5768 33.0175 13.9932 33.4956 13.5194 34.0734C13.0457 34.6512 12.6912 35.3172 12.4766 36.0329C12.2583 36.7474 12.1838 37.4981 12.2574 38.2416C12.331 38.9851 12.5513 39.7066 12.9055 40.3644C12.961 40.4677 13.0335 40.556 13.095 40.6538C9.39433 42.0701 5.17363 48.2201 2.14272 56.7217L0.828413 60.7714L0.832518 60.7741C0.017242 62.5025 -0.207058 64.451 0.194179 66.3194C1.05351 70.3526 4.6646 73.2782 8.78199 73.2782H8.78267C9.39843 73.2782 10.0169 73.2118 10.6245 73.0825C11.7545 72.8456 12.8262 72.3866 13.7774 71.7322C14.7287 71.0778 15.5404 70.2409 16.1656 69.2703C16.8103 68.2777 17.2476 67.1651 17.4512 65.9992L18.5815 61.5671C20.2091 54.6124 20.6402 47.2698 18.7778 43.2968C19.4159 43.2013 20.0331 42.9981 20.6032 42.6961C20.7791 42.6017 20.9481 42.4984 21.1109 42.3889C21.0042 41.8032 20.8954 41.2155 20.7989 40.649C20.3884 38.2441 21.1177 36 22.5087 34.3217ZM16.2341 64.9866C16.1611 66.0638 15.8548 67.1122 15.3364 68.0593L13.0417 66.277C13.1862 65.7525 13.2042 65.2013 13.0944 64.6685C12.8965 63.773 12.3526 62.992 11.5812 62.4959C10.8098 61.9999 9.8736 61.8289 8.97669 62.0204C8.07978 62.2118 7.29496 62.7501 6.79336 63.5179C6.29177 64.2857 6.1141 65.2207 6.2991 66.1189C6.49162 67.0199 7.03412 67.8075 7.80728 68.3085C8.58045 68.8096 9.52096 68.983 10.422 68.7906C11.0757 68.6506 11.6748 68.3241 12.1468 67.8506L14.5284 69.249C13.8304 70.0965 12.9532 70.7785 11.9599 71.2461C10.9666 71.7136 9.88189 71.955 8.78404 71.9529H8.78267C5.2872 71.9529 2.21866 69.468 1.48865 66.0437C1.28212 65.0767 1.27031 64.0782 1.45392 63.1066C1.63752 62.135 2.01286 61.2098 2.55802 60.3848C2.94866 59.7913 3.42132 59.2559 3.96195 58.7948L3.96674 58.7907C4.14736 58.6368 4.33551 58.491 4.53119 58.3549C4.54555 58.3446 4.56129 58.3371 4.57566 58.3268C4.7597 58.2002 4.94854 58.0805 5.1449 57.9704C5.19758 57.9409 5.25436 57.9184 5.30773 57.8896C5.46988 57.8041 5.63203 57.7186 5.80171 57.6447C5.91049 57.5975 6.02543 57.5605 6.13695 57.5174C6.25737 57.4723 6.37505 57.421 6.49888 57.3813C7.2418 57.1423 8.01733 57.0202 8.79772 57.0194C12.2932 57.0194 15.3617 59.5063 16.0931 62.9307C16.1554 63.2296 16.1988 63.5321 16.2231 63.8365C16.2334 63.9508 16.2382 64.0657 16.243 64.18C16.2525 64.4502 16.2519 64.7205 16.2341 64.9866ZM17.3157 61.2619C16.6418 58.5895 14.4778 56.2668 11.4701 55.3821C8.46179 54.4968 5.38367 55.2768 3.37082 57.1596C6.84439 47.4121 11.9764 40.7099 15.4828 41.7417C18.9879 42.7727 19.6734 51.1854 17.3157 61.2619ZM19.1822 40.6292C19.2492 41.0315 19.3238 41.4153 19.3929 41.8121C18.9565 41.9672 18.4978 42.0501 18.0348 42.0577C17.7371 41.6604 17.3777 41.3132 16.9702 41.0294L17.5354 39.1384L17.5497 39.0829C17.6209 38.8072 17.5908 38.5014 17.4457 38.2325C17.2987 37.956 17.048 37.7492 16.7485 37.6574C16.4491 37.5657 16.1255 37.5966 15.8489 37.7433C15.7113 37.8179 15.5898 37.9189 15.4913 38.0406C15.3928 38.1622 15.3192 38.302 15.2748 38.4521L15.2653 38.4891L14.7131 40.3357C14.6194 40.3364 14.5243 40.3452 14.4292 40.3521C14.2821 40.1654 14.1512 39.9665 14.0378 39.7575C13.765 39.2478 13.5952 38.6893 13.5382 38.114C13.4813 37.5386 13.5382 36.9577 13.7058 36.4044C13.8734 35.851 14.1484 35.3361 14.5151 34.8891C14.8817 34.4421 15.3329 34.0717 15.8427 33.799C17.4156 32.9575 19.2657 33.1757 20.5964 34.1952C19.3123 36.0769 18.8055 38.3824 19.1822 40.6292Z" fill="#101A64"/>
<path d="M37.6411 4.44287C31.8255 4.44287 26.4 5.65455 22.9668 10.244C26.2727 7.09406 31.3124 6.37089 37.6411 6.37089C43.9704 6.37089 49.0094 7.09406 52.3146 10.244C48.8821 5.65387 43.4545 4.44287 37.6411 4.44287Z" fill="#101A64"/>
<path d="M54.1126 33.4578C53.7364 33.0184 53.3189 32.6161 52.866 32.2563C49.1249 34.9246 43.6878 34.8959 37.6444 34.8959C31.6715 34.8959 26.3028 34.9212 22.5692 32.3562C22.1642 32.689 21.7888 33.0562 21.4472 33.4537C20.6168 34.4353 20.0109 35.5866 19.6718 36.8269C19.3327 38.0671 19.2687 39.3665 19.4843 40.6341C20.1787 44.7467 20.9881 48.5583 21.8912 51.9874L21.8857 51.9922L22.0917 52.7475L22.6554 54.8178L22.6773 54.798C26.4321 67.4286 31.5203 73.8332 37.8175 73.8332C44.0907 73.8332 49.1502 67.4799 52.8749 54.9492L52.8975 54.9711L53.4537 52.9185L53.4633 52.885L53.6672 52.1338L53.6624 52.129C54.5737 48.6623 55.3879 44.8001 56.0844 40.628C56.2968 39.3613 56.2304 38.0636 55.8898 36.8252C55.5493 35.5869 54.9428 34.4377 54.1126 33.4578ZM37.6656 61.674C37.4768 61.6739 37.2904 61.6316 37.1199 61.5503C36.9495 61.469 36.7994 61.3507 36.6805 61.204C36.5617 61.0572 36.4771 60.8858 36.4329 60.7022C36.3887 60.5186 36.3861 60.3275 36.4252 60.1428C36.4966 59.8149 36.6946 59.5285 36.9761 59.3459C37.2576 59.1634 37.5999 59.0993 37.9283 59.1678C38.2568 59.2384 38.5439 59.4363 38.7266 59.7182C38.9094 60.0001 38.9729 60.343 38.9033 60.6716C38.8417 60.9545 38.6855 61.208 38.4605 61.3902C38.2355 61.5724 37.9551 61.6725 37.6656 61.674ZM54.7694 40.6471C54.2179 43.9257 53.4955 47.5429 52.5787 51.1287C51.4975 50.1605 50.3361 49.2858 49.1071 48.5138C48.9748 48.9252 48.7933 49.3192 48.5666 49.6872C49.8684 50.525 51.0893 51.4825 52.2133 52.547C52.0854 53.0177 51.9526 53.4871 51.8172 53.9544C49.0298 63.6047 44.6921 72.2883 38.096 72.5264V62.4142C38.483 62.3305 38.8379 62.1373 39.1182 61.8575C39.3985 61.5778 39.5925 61.2234 39.6771 60.8365C39.7342 60.5723 39.7384 60.2994 39.6894 60.0335C39.6404 59.7676 39.5393 59.5141 39.3918 59.2875C39.2453 59.0608 39.0554 58.8652 38.833 58.7121C38.6106 58.5589 38.3601 58.4513 38.096 58.3954V52.2706H37.1894V58.4125C36.8122 58.5028 36.468 58.6976 36.1962 58.9744C35.9245 59.2513 35.7361 59.599 35.6528 59.9779C35.5393 60.5032 35.6367 61.0521 35.9242 61.5062C36.2117 61.9603 36.6661 62.2832 37.1894 62.4053V72.512C30.7534 71.9818 26.4944 63.342 23.7364 53.8032C23.6019 53.3392 23.471 52.8742 23.3437 52.4081C24.3992 51.4215 25.5393 50.5296 26.7509 49.7426C26.5204 49.3763 26.335 48.9834 26.1988 48.5726C25.063 49.2954 23.9859 50.1066 22.9777 50.9987C22.0705 47.4561 21.3521 43.8867 20.7999 40.6498C20.3682 38.1204 21.1885 35.7607 22.7232 34.0592C25.5009 35.6252 28.8507 36.0405 32.1963 36.1527C33.358 37.8303 35.2573 38.5918 37.1887 38.6979V40.7053H38.0953V38.7013C40.0732 38.6117 42.0211 37.9015 43.1733 36.15C46.564 36.0337 49.9535 35.5992 52.7408 33.9627C54.3384 35.6663 55.2045 38.0664 54.7694 40.6471Z" fill="#101A64"/>
<path d="M43.9765 40.7036H31.3089C30.602 40.7035 29.902 40.8427 29.2489 41.1131C28.5958 41.3836 28.0024 41.78 27.5025 42.2798C27.0026 42.7797 26.6061 43.373 26.3356 44.0261C26.065 44.6792 25.9258 45.3792 25.9258 46.086V46.8872C25.9258 47.5941 26.065 48.2941 26.3356 48.9471C26.6061 49.6002 27.0026 50.1936 27.5025 50.6934C28.0024 51.1932 28.5958 51.5897 29.2489 51.8601C29.902 52.1306 30.602 52.2697 31.3089 52.2697H43.9771C45.4044 52.2693 46.7731 51.702 47.7822 50.6927C48.7913 49.6833 49.3582 48.3145 49.3582 46.8872V46.086C49.358 44.6587 48.791 43.2899 47.7818 42.2805C46.7726 41.2712 45.4038 40.704 43.9765 40.7036ZM43.0419 46.6895L42.0519 48.9794L41.1659 44.5596L40.2456 50.3163L39.0955 46.7189H35.6172L34.8085 43.8796L34.1243 50.5106L32.7607 45.3916L32.2606 46.7778H28.2328L32.0382 46.461L32.8073 44.3311L33.9868 48.7584L34.6621 42.2095L35.858 46.4021H39.3282L40.143 48.9521L41.1317 42.7712L42.1634 47.9224L42.8339 46.3727L47.0491 46.6895H43.0419Z" fill="#29A5F6"/>
<path d="M60.4625 39.3483C60.8468 38.629 60.9704 37.7988 60.8125 36.9987C60.6545 36.1986 60.2246 35.4777 59.5957 34.9584C58.9669 34.4391 58.1777 34.1533 57.3622 34.1495C56.5466 34.1456 55.7548 34.424 55.1211 34.9374C55.1355 34.9648 55.1546 34.9908 55.1697 35.0189C56.1576 34.3785 57.5561 34.3142 58.7938 34.9764C60.5145 35.8973 61.2609 37.8555 60.4625 39.3483ZM68.4366 54.4139C69.0359 54.5535 69.614 54.7458 70.1628 54.9962C67.3535 48.112 63.7281 43.1223 60.9866 42.5373C60.8976 42.5182 60.8076 42.5045 60.717 42.4962C63.2307 44.3996 66.0823 48.7838 68.4366 54.4139ZM71.4169 61.4247C70.9838 60.7953 70.407 60.2698 69.7666 59.8497C69.1168 59.4394 68.4012 59.1441 67.6511 58.9767C66.8981 58.8228 66.124 58.8002 65.3632 58.9097C64.6079 59.0328 63.8669 59.2757 63.2156 59.6753C61.8992 60.4381 60.9346 61.8195 60.821 63.2802C61.2917 61.9016 62.3125 60.8432 63.531 60.2568C64.7536 59.6698 66.1583 59.5241 67.4746 59.808C68.7917 60.083 70.0157 60.7905 70.8914 61.8256C71.7665 62.8588 72.2666 64.2415 72.1318 65.6926C72.6244 64.3126 72.3056 62.6597 71.4169 61.4247ZM66.2992 54.1738C64.8192 53.9095 63.2993 53.9705 61.8453 54.3527C60.3912 54.735 59.0378 55.4292 57.879 56.3871C57.9803 57.0747 58.098 57.7801 58.2355 58.5081C59.4239 56.6553 61.3102 55.2295 63.5577 54.5679C64.4482 54.3073 65.3713 54.1746 66.2992 54.1738Z" fill="#101A64"/>
<path d="M74.4323 60.774L74.4364 60.7713L73.1221 56.7216C70.0912 48.2193 65.8698 42.0699 62.1691 40.6537C62.2313 40.5559 62.3032 40.4676 62.3586 40.3643C62.713 39.7066 62.9335 38.9851 63.0073 38.2416C63.081 37.498 63.0066 36.7473 62.7882 36.0327C62.5735 35.317 62.2189 34.651 61.745 34.0732C61.2712 33.4954 60.6874 33.0173 60.0276 32.6666C59.2035 32.2258 58.2836 31.9943 57.349 31.9927C56.4924 31.9932 55.6471 32.1876 54.8763 32.5613C54.1055 32.9351 53.4294 33.4784 52.8984 34.1506C54.3886 35.8419 55.1863 38.1571 54.7669 40.6468C54.6623 41.2688 54.5459 41.9126 54.4283 42.5564C54.5056 42.6022 54.5808 42.6529 54.6609 42.696C55.2315 43.0018 55.8514 43.1995 56.487 43.2967C54.6246 47.2697 55.055 54.6123 56.6833 61.567L57.8129 65.9991C58.0166 67.1649 58.4539 68.2776 59.0985 69.2701C59.7237 70.2409 60.5356 71.0778 61.4869 71.7322C62.4383 72.3867 63.5101 72.8456 64.6403 73.0824C65.2485 73.2117 65.8657 73.278 66.4814 73.278H66.4828C70.6002 73.278 74.2106 70.3525 75.0699 66.3193C75.475 64.4248 75.241 62.4981 74.4323 60.774ZM55.8719 41.812C55.9417 41.4159 56.0149 41.0314 56.0826 40.6291C56.4603 38.3631 55.9458 36.067 54.6684 34.195C55.9991 33.1763 57.8492 32.9574 59.4221 33.7989C59.9319 34.0716 60.3829 34.4421 60.7495 34.8891C61.1161 35.3361 61.3911 35.851 61.5587 36.4043C61.7263 36.9576 61.7833 37.5385 61.7263 38.1139C61.6694 38.6892 61.4997 39.2477 61.2269 39.7574C61.114 39.9666 60.9831 40.1655 60.8356 40.352C60.7405 40.3451 60.6461 40.3362 60.5523 40.3355L60.0002 38.4889L59.9906 38.452C59.9463 38.3018 59.8726 38.1619 59.774 38.0402C59.6754 37.9186 59.5537 37.8176 59.4159 37.7432C59.1393 37.5965 58.8157 37.5656 58.5162 37.6573C58.2168 37.749 57.9661 37.9559 57.819 38.2324C57.6733 38.5013 57.6439 38.8071 57.7151 39.0828L57.7294 39.1382L58.2939 41.0293C57.8864 41.3131 57.527 41.6603 57.2293 42.0576C56.7665 42.0501 56.308 41.9671 55.8719 41.812ZM59.782 41.7415C63.2884 40.7105 68.4204 47.412 71.894 57.1595C69.8818 55.2766 66.8037 54.4967 63.7947 55.382C60.787 56.2666 58.623 58.5894 57.949 61.2618C55.5914 51.1852 56.2769 42.7726 59.782 41.7415ZM73.7755 66.0442C73.0461 69.4685 69.9776 71.9535 66.4821 71.9535H66.4807C65.3829 71.9557 64.2982 71.7144 63.3048 71.2468C62.3115 70.7793 61.4343 70.0971 60.7364 69.2496L63.118 67.8511C63.59 68.3246 64.1891 68.6512 64.8428 68.7912C65.7438 68.9835 66.6843 68.8101 67.4575 68.3091C68.2307 67.8081 68.7732 67.0205 68.9657 66.1195C69.1507 65.2212 68.973 64.2863 68.4714 63.5185C67.9698 62.7507 67.185 62.2124 66.2881 62.0209C65.3912 61.8295 64.455 62.0004 63.6836 62.4965C62.9122 62.9926 62.3683 63.7735 62.1704 64.669C62.0606 65.2018 62.0786 65.7531 62.2231 66.2775L59.9284 68.0598C59.4104 67.1126 59.1041 66.0643 59.0307 64.9872C59.0123 64.7203 59.0123 64.4508 59.0211 64.1798C59.0266 64.0656 59.0314 63.9506 59.041 63.8364C59.0659 63.5321 59.1094 63.2296 59.171 62.9305C59.9024 59.5062 62.9709 57.0192 66.4664 57.0192C67.2466 57.02 68.0219 57.1421 68.7645 57.3812C68.8884 57.4215 69.0061 57.4722 69.1265 57.5173C69.2373 57.5604 69.3522 57.5967 69.461 57.6446C69.6307 57.7185 69.7929 57.804 69.955 57.8895C70.0084 57.9182 70.0652 57.9408 70.1178 57.9702C70.3135 58.0804 70.503 58.2008 70.6864 58.3267C70.7008 58.337 70.7165 58.3445 70.7309 58.3548C70.9279 58.4917 71.1179 58.6386 71.3001 58.7947C71.8404 59.2562 72.313 59.7915 72.704 60.3847C73.2499 61.2095 73.6258 62.1348 73.8098 63.1066C73.9938 64.0783 73.9821 65.077 73.7755 66.0442Z" fill="#101A64"/>
<path d="M56.9342 8.45234H56.2494C52.8018 2.76271 46.7106 0 37.6445 0C28.5662 0 22.4749 2.76271 19.028 8.45234H18.6025C14.5651 8.45234 11.2715 13.0445 11.2715 18.6876C11.2715 24.0352 14.1998 28.4502 17.9771 28.8983C21.4712 36.1944 29.0512 36.1944 35.7439 36.1944H39.5568C46.2398 36.1944 53.8069 36.1944 57.2893 28.923C61.1604 28.6513 64.2659 24.1535 64.2659 18.6883C64.2659 13.0445 60.9839 8.45234 56.9342 8.45234ZM56.9342 27.636H56.4498C53.3457 34.9547 46.0852 34.8965 37.6445 34.8965C29.1915 34.8965 21.944 34.9547 18.8385 27.636H18.6025C15.2739 27.636 12.5701 23.6336 12.5701 18.6876C12.5701 13.7527 15.2739 9.73928 18.6025 9.73928H19.7833C23.2658 3.47084 29.9591 1.29857 37.6445 1.29857C45.3292 1.29857 52.0232 3.47015 55.505 9.73928H56.9342C60.2758 9.73928 62.9776 13.7527 62.9776 18.6876C62.9776 23.6336 60.2758 27.636 56.9342 27.636Z" fill="#101A64"/>
<path d="M18.6091 11.853C16.5135 11.853 14.6758 15.0481 14.6758 18.69C14.6758 22.3333 16.5142 25.5284 18.6091 25.5284H19.7579C19.0039 23.9602 18.5674 22.0281 18.5674 19.652C18.5674 16.6909 19.2358 14.0698 20.4927 11.853H18.6091ZM56.9334 11.853H54.7905C56.0494 14.0698 56.7172 16.6909 56.7172 19.652C56.7172 22.0281 56.2807 23.9602 55.526 25.5284H56.9334C59.029 25.5284 60.8674 22.3333 60.8674 18.69C60.8674 15.0481 59.0283 11.853 56.9334 11.853Z" fill="#101A64"/>
<path d="M52.6687 21.9383V18.6761C52.6695 18.2089 52.8321 17.7564 53.129 17.3956C53.4259 17.0349 53.8387 16.7882 54.297 16.6975C52.8 10.0076 45.9172 8.99707 37.6407 8.99707C29.3642 8.99707 22.4814 10.0076 20.9844 16.6975C21.4427 16.7882 21.8553 17.0349 22.1521 17.3957C22.4489 17.7565 22.6114 18.209 22.612 18.6761V21.9383C22.6112 22.3413 22.4898 22.7348 22.2633 23.0682C22.0369 23.4016 21.7158 23.6595 21.3415 23.8088C23.3742 29.3842 29.8937 30.21 37.6407 30.21C45.3863 30.21 51.9079 29.3842 53.9399 23.8095C53.5653 23.6603 53.2441 23.4023 53.0175 23.0688C52.7909 22.7352 52.6694 22.3415 52.6687 21.9383ZM33.2065 21.913C33.2058 22.4395 32.9963 22.9443 32.624 23.3166C32.2517 23.6889 31.7469 23.8984 31.2204 23.8992C30.6938 23.8984 30.1891 23.6889 29.8167 23.3166C29.4444 22.9443 29.2349 22.4395 29.2342 21.913V18.7021C29.2349 18.1756 29.4444 17.6708 29.8167 17.2985C30.1891 16.9262 30.6938 16.7167 31.2204 16.716C31.7469 16.7167 32.2517 16.9262 32.624 17.2985C32.9963 17.6708 33.2058 18.1756 33.2065 18.7021V21.913ZM45.9104 21.913C45.9098 22.4396 45.7004 22.9445 45.328 23.3168C44.9557 23.6892 44.4508 23.8986 43.9242 23.8992C43.3977 23.8984 42.893 23.6889 42.5208 23.3166C42.1486 22.9442 41.9393 22.4395 41.9387 21.913V18.7021C41.9393 18.1757 42.1486 17.6709 42.5208 17.2985C42.893 16.9262 43.3977 16.7167 43.9242 16.716C44.4508 16.7165 44.9557 16.9259 45.328 17.2983C45.7004 17.6707 45.9098 18.1755 45.9104 18.7021V21.913ZM37.6414 11.6229C33.4734 11.6229 28.665 11.3643 25.9248 12.9674C28.602 10.845 33.4289 10.8498 37.6414 10.8498C41.8525 10.8498 46.6801 10.8457 49.3573 12.9674C46.6178 11.3643 41.8087 11.6229 37.6414 11.6229Z" fill="#101A64"/>
</svg>
